<svg xmlns="http://www.w3.org/2000/svg" xmlns:xlink="http://www.w3.org/1999/xlink" viewBox="0 0 353.63 459.23"><defs><style>.cls-1{fill:#040404;}.cls-2{fill:#fff;}.cls-3{fill:#4d4d4d;}.cls-4{stroke-miterlimit:10;fill:url(#radial-gradient);stroke:url(#radial-gradient-2);}.cls-5{opacity:0.93;}.cls-6{opacity:0.55;}.cls-7{fill:#86328c;}.cls-8{fill:#f7f7f7;}.cls-9{fill:#ec008c;}.cls-10{fill:#0083ca;}.cls-11{fill:#999;}.cls-12{fill:#ed1164;}.cls-13{fill:#666;}</style><radialGradient id="radial-gradient" cx="176.81" cy="17" r="10.65" gradientTransform="matrix(0.67, 0.74, 0.44, -0.4, 50.48, 330.39)" gradientUnits="userSpaceOnUse"><stop offset="0" stop-color="#2a2a2a"/><stop offset="1" stop-color="#090909"/></radialGradient><radialGradient id="radial-gradient-2" cx="176.82" cy="17.01" r="11.15" gradientTransform="matrix(0.67, 0.74, 0.74, -0.67, 45.43, 334.96)" gradientUnits="userSpaceOnUse"><stop offset="0.13" stop-color="#464646"/><stop offset="0.37" stop-color="#2b2b2b"/><stop offset="1" stop-color="#090909"/></radialGradient></defs><g id="Layer_2" data-name="Layer 2"><g id="Layer_1-2" data-name="Layer 1"><rect class="cls-1" width="353.63" height="459.23" rx="35.18"/><rect class="cls-2" x="34.42" y="42.27" width="284.78" height="378.09" rx="2.21"/><circle class="cls-3" cx="176.81" cy="23.47" r="2.37"/><circle class="cls-4" cx="176.81" cy="454.53" r="10.65" transform="translate(-278.67 265.81) rotate(-47.8)"/><rect class="cls-7" x="34.42" y="71.51" width="284.78" height="23.75"/><rect class="cls-7" x="50.34" y="108.81" width="252.64" height="113.64"/><rect class="cls-8" x="82.34" y="157.44" width="184.2" height="19.36"/><rect class="cls-9" x="227.3" y="157.44" width="39.23" height="19.58"/><rect class="cls-10" x="140.64" y="232.49" width="71.48" height="45.38"/><rect class="cls-10" x="231.23" y="232.72" width="71.48" height="45.38"/><rect class="cls-10" x="50.56" y="232.72" width="71.48" height="45.38"/><rect class="cls-11" x="140.64" y="286.78" width="71.48" height="4.17"/><rect class="cls-11" x="140.64" y="296.01" width="71.48" height="4.17"/><rect class="cls-11" x="140.64" y="305.25" width="71.48" height="4.17"/><rect class="cls-11" x="140.64" y="314.48" width="71.48" height="4.17"/><rect class="cls-11" x="140.64" y="323.72" width="71.48" height="4.17"/><rect class="cls-11" x="231.23" y="286.66" width="71.48" height="4.17"/><rect class="cls-11" x="231.23" y="295.9" width="71.48" height="4.17"/><rect class="cls-11" x="231.23" y="305.13" width="71.48" height="4.17"/><rect class="cls-11" x="231.23" y="314.37" width="71.48" height="4.17"/><rect class="cls-11" x="231.23" y="323.6" width="71.48" height="4.17"/><rect class="cls-11" x="50.56" y="286.66" width="71.48" height="4.17"/><rect class="cls-11" x="50.56" y="295.9" width="71.48" height="4.17"/><rect class="cls-11" x="50.56" y="305.13" width="71.48" height="4.17"/><rect class="cls-11" x="50.56" y="314.37" width="71.48" height="4.17"/><rect class="cls-11" x="50.56" y="323.6" width="71.48" height="4.17"/><rect class="cls-12" x="50.83" y="336.97" width="252.15" height="57.53"/><rect class="cls-11" x="50.83" y="402.34" width="252.15" height="4.15"/><rect class="cls-11" x="50.83" y="411.58" width="252.15" height="4.25"/><rect class="cls-13" x="43.61" y="52.22" width="13.46" height="1.53"/><rect class="cls-13" x="43.61" y="56.59" width="13.46" height="1.53"/><rect class="cls-13" x="43.61" y="60.97" width="13.46" height="1.53"/></g></g></svg>