<svg xmlns="http://www.w3.org/2000/svg" viewBox="0 0 176.73 141.41"><defs><style>.cls-1{fill:#1a1a1a;}.cls-1,.cls-2,.cls-3,.cls-7,.cls-8{fill-rule:evenodd;}.cls-2{fill:#333;}.cls-3{fill:#212121;}.cls-4{fill:#fff;}.cls-5{fill:#b2dfdb;}.cls-6{fill:#f9f9f9;}.cls-7{fill:#4d4d4d;}.cls-8{fill:#424242;}.cls-9{fill:#b39ddb;}.cls-10{fill:#f06292;}.cls-11{fill:#8bc34a;}</style></defs><g id="Layer_2" data-name="Layer 2"><g id="Layer_1-2" data-name="Layer 1"><path class="cls-1" d="M49.3,141.41h78.14c.42,0,.92-.38.76-.77l-3.82-9.5c-.16-.39-1.78-.76-2.2-.76H54.55c-.42,0-2,.37-2.2.76l-3.82,9.5c-.16.39.34.77.76.77Z"/><path class="cls-2" d="M82,108H94.69v24.35a15.67,15.67,0,0,1-12.65,0Z"/><path class="cls-3" d="M93.51,108h1.18v24.19a1.77,1.77,0,0,1-1.19.68Z"/><rect class="cls-4" x="0.02" y="9.26" width="176.68" height="109.19" rx="7.57"/><rect class="cls-5" x="3.22" y="3" width="170.19" height="101.43"/><rect class="cls-6" x="18.18" y="6.12" width="140.38" height="98.3"/><path class="cls-7" d="M0,0V109.09H176.73V0ZM4.17,5.64H171.79V103H4.17Z"/><path class="cls-8" d="M49.3,141.41h78.14c.42,0,.92-.08.76-.16l-3.82-2a16.34,16.34,0,0,0-2.2-.16H54.55a16.34,16.34,0,0,0-2.2.16l-3.82,2c-.16.08.34.16.76.16Z"/><rect class="cls-9" x="23.02" y="10.54" width="130.1" height="19.81" rx="0.84"/><rect class="cls-10" x="130.04" y="35.64" width="23.2" height="62.59" rx="0.85"/><rect class="cls-11" x="23.03" y="35.83" width="101.81" height="62.45" rx="0.85"/></g></g></svg>